<?xml version="1.0" standalone="no"?>
<!DOCTYPE svg PUBLIC "-//W3C//DTD SVG 20010904//EN"
 "http://www.w3.org/TR/2001/REC-SVG-20010904/DTD/svg10.dtd">
<svg version="1.0" xmlns="http://www.w3.org/2000/svg"
 width="160.000000pt" height="160.000000pt" viewBox="0 0 160.000000 160.000000"
 preserveAspectRatio="xMidYMid meet">
<metadata>
Created by potrace 1.11, written by Peter Selinger 2001-2013
</metadata>
<g transform="translate(0.000000,160.000000) scale(0.100000,-0.100000)"
fill="#000000" stroke="none">
<path d="M160 1587 c-49 -16 -133 -102 -148 -153 -17 -59 -17 -1209 0 -1268
16 -55 99 -138 154 -154 59 -17 1209 -17 1268 0 55 16 138 99 154 154 17 59
17 1209 0 1268 -16 55 -99 138 -154 154 -55 16 -1222 15 -1274 -1z m1115 -517
c1 -184 5 -362 9 -395 l8 -60 -162 0 -162 0 8 115 c4 63 7 238 6 389 -1 150 1
277 4 282 3 5 69 8 147 7 l142 -3 0 -335z m-728 243 c46 -21 73 -67 73 -121 0
-60 -22 -96 -73 -121 -83 -40 -188 -21 -227 41 -27 42 -23 126 6 159 52 59
147 77 221 42z m75 -363 c-2 -14 -6 -191 -10 -395 l-7 -370 -142 -3 -143 -3 0
288 c-1 159 -5 335 -10 392 -5 57 -8 107 -6 110 2 3 75 6 163 6 l158 -1 -3
-24z m585 -429 c101 -46 109 -175 14 -238 -26 -18 -48 -23 -95 -23 -68 0 -113
21 -142 65 -21 33 -23 99 -5 144 27 65 142 91 228 52z"/>
</g>
</svg>
